<svg width="788" height="14" viewBox="0 0 788 14" fill="none" xmlns="http://www.w3.org/2000/svg">
<path d="M276.638 13.2327C362.841 13.2327 699.542 13.2327 753.141 13.2327H777.388C782.699 13.2327 785.868 11.3972 786.856 7.81173C787.762 4.52502 786.033 1.23832 782.946 0.256575C781.669 -0.127585 780.311 0.000468004 779.117 0.640735C777.923 1.32369 777.059 2.3908 776.688 3.7567C776.359 4.90918 776.482 6.14703 777.018 7.21415C777.553 8.28126 778.5 9.04958 779.611 9.39106C780.599 9.68985 781.587 9.60448 782.493 9.09226C783.398 8.58005 784.016 7.76905 784.345 6.74462C784.88 4.95187 783.892 3.03107 782.122 2.47617C781.669 2.34811 781.217 2.60422 781.093 3.03107C780.97 3.5006 781.217 3.97013 781.628 4.09818C782.493 4.35429 782.987 5.33603 782.74 6.2324C782.575 6.7873 782.205 7.25683 781.711 7.55562C781.217 7.85441 780.64 7.8971 780.064 7.72636C779.364 7.51294 778.788 7.04341 778.458 6.36046C778.129 5.72019 778.047 4.95187 778.253 4.22623C778.5 3.32986 779.076 2.60422 779.899 2.13469C780.681 1.70785 781.628 1.57979 782.493 1.87859C784.716 2.56154 785.951 4.95187 785.292 7.29952C784.51 10.1167 781.958 11.4826 777.388 11.4826H753.141C665.292 11.4826 11.8134 11.4826 9.71394 11.4826C5.18562 11.4826 2.59213 10.1167 1.80996 7.29952C1.19246 4.95187 2.42746 2.56154 4.65045 1.87859C5.51495 1.57979 6.42062 1.70785 7.24395 2.13469C8.02611 2.56154 8.60244 3.32986 8.84944 4.22623C9.05528 4.95187 8.97295 5.72019 8.64361 6.36046C8.31428 7.00072 7.73795 7.51294 7.03812 7.72636C6.50295 7.8971 5.92662 7.85441 5.39145 7.55562C4.89745 7.25683 4.56812 6.7873 4.40345 6.2324C4.15646 5.33603 4.65045 4.35429 5.51495 4.09818C5.96778 3.97013 6.21478 3.5006 6.05012 3.03107C5.92662 2.56154 5.47379 2.30543 5.02095 2.43348C3.29196 2.98838 2.26279 4.90918 2.79796 6.70193C3.08613 7.72636 3.74479 8.58005 4.65045 9.04958C5.55612 9.56179 6.58528 9.64716 7.53211 9.34837C8.64361 9.0069 9.54928 8.23857 10.1256 7.17146C10.6608 6.10435 10.7843 4.8665 10.4549 3.71402C10.0433 2.3908 9.17878 1.281 8.02611 0.640735C6.83228 -0.0422164 5.47379 -0.17027 4.15646 0.21389C1.06896 1.19563 -0.660033 4.48234 0.245632 7.76905C1.23363 11.3972 4.40346 13.19 9.71394 13.19C10.5373 13.2327 221.557 13.2327 276.638 13.2327Z" fill="white"/>
</svg>
