<svg width="14" height="183" viewBox="0 0 14 183" fill="none" xmlns="http://www.w3.org/2000/svg">
<path d="M0.822693 147.56C0.822693 58.8015 0.822693 90.8037 0.822693 35.6157V10.6497C0.822693 5.18181 2.61883 1.918 6.12767 0.900709C9.34409 -0.0318075 12.5605 1.74845 13.5213 4.92748C13.8972 6.24148 13.7719 7.64026 13.1454 8.86948C12.477 10.0987 11.4327 10.9888 10.096 11.3703C8.96813 11.7094 7.75676 11.5823 6.71247 11.0312C5.66817 10.4802 4.9163 9.50529 4.58213 8.36084C4.28973 7.34355 4.37324 6.32626 4.8745 5.39374C5.37576 4.46122 6.16944 3.82542 7.17196 3.48632C8.96815 2.93529 10.8061 3.95258 11.3491 5.77522C11.4745 6.24148 11.2239 6.70774 10.8062 6.8349C10.3467 6.96206 9.88717 6.70774 9.76186 6.28387C9.51122 5.39374 8.55047 4.8851 7.67326 5.13942C7.13023 5.30897 6.67069 5.69045 6.37829 6.1991C6.08588 6.70774 6.04414 7.30116 6.21123 7.89458C6.42009 8.61516 6.87961 9.20858 7.54796 9.54768C8.17453 9.88677 8.92642 9.97155 9.63655 9.75961C10.5138 9.50529 11.2238 8.91187 11.6833 8.06413C12.101 7.25877 12.2263 6.28387 11.9339 5.39374C11.2656 3.10484 8.92642 1.83323 6.62897 2.51142C3.87203 3.31677 2.53529 5.94477 2.53529 10.6497V35.6157C2.53529 126.07 2.53529 170.576 2.53529 172.738C2.53529 177.401 3.87203 180.071 6.62897 180.876C8.92642 181.555 11.2656 180.283 11.9339 177.994C12.1846 177.104 12.101 176.171 11.6833 175.324C11.2656 174.518 10.5138 173.882 9.63655 173.628C8.92642 173.416 8.17453 173.501 7.54796 173.84C6.92138 174.179 6.42009 174.773 6.21123 175.493C6.04414 176.044 6.08588 176.638 6.37829 177.189C6.67069 177.697 7.13023 178.079 7.67326 178.248C8.55047 178.503 9.51122 177.994 9.76186 177.104C9.88717 176.638 10.3467 176.383 10.8062 176.553C11.2656 176.68 11.5162 177.146 11.3491 177.613C10.8061 179.393 8.92638 180.452 7.17196 179.901C6.16944 179.605 5.37576 178.927 4.8745 177.994C4.37324 177.061 4.28973 176.002 4.58213 175.027C4.9163 173.882 5.66817 172.95 6.71247 172.357C7.75676 171.805 8.96813 171.678 10.096 172.017C11.3909 172.399 12.477 173.289 13.1454 174.518C13.8137 175.747 13.939 177.146 13.5213 178.46C12.5605 181.639 9.34409 183.42 6.12767 182.487C2.57706 181.47 0.822693 178.206 0.822693 172.738C0.822693 171.848 0.822693 204.232 0.822693 147.56Z" fill="white"/>
</svg>
