<svg width="14" height="183" viewBox="0 0 14 183" fill="none" xmlns="http://www.w3.org/2000/svg">
<path d="M13.1098 41.9821C13.1098 130.741 13.1098 92.5923 13.1098 147.78V172.746C13.1098 178.214 11.3137 181.478 7.80483 182.495C4.5884 183.428 1.37197 181.648 0.411218 178.469C0.035272 177.155 0.160587 175.756 0.787164 174.527C1.45551 173.297 2.49981 172.407 3.83651 172.026C4.96434 171.687 6.17573 171.814 7.22002 172.365C8.26432 172.916 9.01621 173.891 9.35038 175.035C9.64279 176.052 9.55924 177.07 9.05798 178.002C8.55672 178.935 7.76305 179.613 6.76053 179.91C4.96434 180.461 3.12638 179.443 2.58335 177.621C2.45804 177.155 2.70867 176.688 3.12638 176.561C3.58587 176.434 4.04536 176.688 4.17068 177.112C4.42131 178.002 5.38206 178.511 6.25927 178.257C6.8023 178.087 7.26179 177.706 7.5542 177.197C7.8466 176.688 7.88837 176.095 7.72128 175.501C7.51242 174.781 7.05293 174.187 6.38459 173.848C5.75801 173.509 5.00612 173.424 4.296 173.636C3.41879 173.891 2.70867 174.484 2.24918 175.332C1.83146 176.137 1.70614 177.112 1.99855 178.002C2.6669 180.291 5.00612 181.563 7.30357 180.885C10.0605 180.079 11.3972 177.451 11.3972 172.746V147.78C11.3972 57.3262 11.3972 12.8198 11.3972 10.658C11.3972 5.99546 10.0605 3.32508 7.30357 2.51972C5.00612 1.88391 2.6669 3.15553 1.99855 5.44443C1.70614 6.33456 1.83146 7.26708 2.24918 8.07243C2.6669 8.92017 3.41879 9.51359 4.296 9.76791C5.00612 9.97985 5.75801 9.89508 6.38459 9.55598C7.01116 9.21688 7.51242 8.62346 7.72128 7.90288C7.88837 7.35185 7.8466 6.75843 7.5542 6.2074C7.26179 5.69875 6.8023 5.35966 6.25927 5.19011C5.38206 4.93579 4.42131 5.44443 4.17068 6.33456C4.04536 6.75843 3.5441 7.01275 3.12638 6.88559C2.6669 6.75843 2.41626 6.29217 2.54158 5.82591C3.08461 4.04566 4.96434 2.98598 6.71876 3.53701C7.72128 3.83372 8.55672 4.51191 9.01621 5.44443C9.4757 6.37695 9.60101 7.43662 9.30861 8.41153C8.97444 9.55598 8.22254 10.4885 7.17825 11.0819C6.13395 11.6329 4.92257 11.7601 3.79473 11.421C2.49981 10.9971 1.41374 10.107 0.787164 8.92017C0.118816 7.69095 -0.00649981 6.29217 0.411218 4.97817C1.37197 1.79914 4.5884 0.0188822 7.80483 0.951398C11.3554 1.96869 13.1098 5.2325 13.1098 10.7004C13.1098 11.5058 13.1098 -14.6894 13.1098 41.9821Z" fill="white"/>
</svg>
