<svg width="20" height="20" viewBox="0 0 20 20" fill="none" xmlns="http://www.w3.org/2000/svg">
<path d="M16.2525 9.43964C16.436 8.97042 16.3302 8.56265 16.0806 8.26516C17.1059 6.29194 17.9752 4.24366 18.8444 2.19538C19.2347 1.27447 18.2029 0.14459 17.2538 0.638241C12.1165 3.3278 6.91361 5.89494 1.63628 8.32704C0.673667 8.77408 0.682112 10.1655 1.65631 10.5899C7.1157 12.9545 12.3413 15.7261 17.3582 18.9358C18.4395 19.6291 19.5896 18.643 19.2236 17.4681C18.5841 15.3824 17.8543 13.344 16.9924 11.3519L16.2525 9.43964ZM12.9869 13.4667C12.5005 13.1609 12.0783 12.7699 11.6279 12.4244C11.6377 12.3953 11.6533 12.3585 11.6621 12.3226C11.879 12.5346 12.1931 12.6498 12.491 12.6495C12.5866 13.2805 13.24 13.542 13.7741 13.3492C14.0217 13.6816 14.2878 13.9976 14.5539 14.3135C14.018 14.0493 13.4888 13.7842 12.9869 13.4667Z" fill="white"/>
</svg>
